<?xml version="1.0" encoding="UTF-8"?> <svg xmlns="http://www.w3.org/2000/svg" width="78" height="56" viewBox="0 0 78 56" fill="none"><path d="M48.7407 43L35.9492 29.5662L22.7344 16.1695C19.0876 12.4725 19.0876 6.46978 22.7344 2.77276C26.3812 -0.924254 32.3024 -0.924253 35.9492 2.77276L49.164 16.1695L52.6563 22.8047L49.164 27.3922L51.618 31.8472L46.0965 35.376L48.7407 43Z" fill="#C1CDE9"></path><path d="M62.0501 29.5534L48.7414 43L45.7678 35.3578L51.2893 31.8323L48.8353 27.3814L52.3275 22.7984L48.8353 16.1693L62.0501 2.78526C65.6969 -0.908273 71.6181 -0.908272 75.2649 2.78526C78.9117 6.47879 78.9117 12.4758 75.2649 16.1693L62.0501 29.5534Z" fill="#C1CDE9"></path><path d="M5.68764 50.1451V13.1936C5.68401 12.7982 5.75934 12.4061 5.90923 12.0401C6.05913 11.6742 6.28056 11.3419 6.56055 11.0627C6.84054 10.7834 7.17346 10.5629 7.53979 10.414C7.90612 10.2651 8.29849 10.1908 8.69389 10.1955H5.64702C5.25161 10.1908 4.85925 10.2651 4.49292 10.414C4.12659 10.5629 3.79367 10.7834 3.51368 11.0627C3.23368 11.3419 3.01225 11.6742 2.86236 12.0401C2.71247 12.4061 2.63713 12.7982 2.64077 13.1936V50.1451C2.63687 50.5412 2.71193 50.9342 2.86156 51.3009C3.0112 51.6677 3.23241 52.001 3.51228 52.2813C3.79215 52.5617 4.12506 52.7835 4.49159 52.9337C4.85812 53.084 5.2509 53.1597 5.64702 53.1565H8.69389C8.29778 53.1597 7.90499 53.084 7.53846 52.9337C7.17194 52.7835 6.83902 52.5617 6.55915 52.2813C6.27928 52.001 6.05807 51.6677 5.90844 51.3009C5.75881 50.9342 5.68375 50.5412 5.68764 50.1451Z" fill="#C1CDE9"></path><path d="M46.3532 9.58618H43.1642V8.02719C43.1666 7.79068 43.1218 7.55606 43.0322 7.33713C42.9427 7.1182 42.8103 6.91938 42.6428 6.75237C42.4753 6.58535 42.2761 6.45351 42.0569 6.3646C41.8378 6.27568 41.603 6.23149 41.3665 6.23462H38.0952C37.8566 6.23072 37.6196 6.2741 37.3978 6.36225C37.1761 6.4504 36.974 6.58159 36.8032 6.74823C36.6324 6.91488 36.4963 7.11369 36.4027 7.3332C36.3091 7.55271 36.2599 7.78858 36.2579 8.02719V9.58618H15.7423V8.02719C15.7403 7.78858 15.6911 7.55271 15.5975 7.3332C15.5039 7.11369 15.3678 6.91488 15.197 6.74823C15.0262 6.58159 14.8241 6.4504 14.6024 6.36225C14.3806 6.2741 14.1436 6.23072 13.905 6.23462H10.6337C10.3972 6.23149 10.1624 6.27568 9.94325 6.3646C9.72407 6.45351 9.52487 6.58535 9.35739 6.75237C9.1899 6.91938 9.0575 7.1182 8.96796 7.33713C8.87843 7.55606 8.83357 7.79068 8.83603 8.02719V9.58618H5.64696C5.17168 9.58202 4.70032 9.67243 4.2603 9.85215C3.82029 10.0319 3.42041 10.2973 3.08395 10.633C2.74748 10.9687 2.48114 11.368 2.30043 11.8076C2.11972 12.2472 2.02825 12.7184 2.03134 13.1937V50.1452C2.02797 50.6212 2.11915 51.0931 2.2996 51.5335C2.48005 51.974 2.74616 52.3743 3.08251 52.7111C3.41886 53.0479 3.81874 53.3146 4.25896 53.4957C4.69918 53.6767 5.17097 53.7686 5.64696 53.7659H42.2328C42.322 53.7692 42.4109 53.7523 42.4926 53.7166C42.5744 53.6808 42.6471 53.627 42.7052 53.5592L49.8522 44.7718C49.9347 44.6644 49.976 44.5312 49.9688 44.396V13.1937C49.9719 12.7184 49.8805 12.2472 49.6997 11.8076C49.519 11.368 49.2527 10.9687 48.9162 10.633C48.5798 10.2973 48.1799 10.0319 47.7399 9.85215C47.2999 9.67243 46.8285 9.58202 46.3532 9.58618ZM37.4767 8.02719C37.4786 7.94859 37.4962 7.87116 37.5286 7.79948C37.5609 7.7278 37.6073 7.66332 37.6649 7.60984C37.7225 7.55636 37.7903 7.51497 37.8642 7.48809C37.9381 7.46122 38.0166 7.44941 38.0952 7.45337H41.3665C41.443 7.45004 41.5193 7.46257 41.5907 7.49017C41.6621 7.51776 41.727 7.55982 41.7814 7.61371C41.8358 7.6676 41.8784 7.73215 41.9066 7.80331C41.9349 7.87447 41.9481 7.95069 41.9454 8.02719V12.8362H37.4767V8.02719ZM10.0548 8.02719C10.0521 7.95069 10.0653 7.87447 10.0936 7.80331C10.1218 7.73215 10.1644 7.6676 10.2188 7.61371C10.2731 7.55982 10.3381 7.51776 10.4095 7.49017C10.4809 7.46257 10.5572 7.45004 10.6337 7.45337H13.905C13.9835 7.44941 14.0621 7.46122 14.136 7.48809C14.2099 7.51497 14.2776 7.55636 14.3353 7.60984C14.3929 7.66332 14.4393 7.7278 14.4716 7.79948C14.5039 7.87116 14.5216 7.94859 14.5235 8.02719V12.8362H10.0548V8.02719ZM3.25009 50.1452V19.2346H8.95943C9.12104 19.2346 9.27604 19.1704 9.39032 19.0561C9.5046 18.9419 9.5688 18.7869 9.5688 18.6252C9.5688 18.4636 9.5046 18.3086 9.39032 18.1943C9.27604 18.0801 9.12104 18.0159 8.95943 18.0159H3.25009V13.1937C3.24682 12.8784 3.30665 12.5656 3.42605 12.2738C3.54545 11.982 3.72201 11.717 3.94534 11.4944C4.16868 11.2718 4.43427 11.0962 4.7265 10.9778C5.01873 10.8594 5.33169 10.8006 5.64696 10.8049H8.83603V13.4841C8.83336 13.5605 8.84658 13.6366 8.87484 13.7076C8.9031 13.7786 8.94578 13.843 9.0002 13.8966C9.05461 13.9503 9.11956 13.992 9.19095 14.0193C9.26234 14.0465 9.33861 14.0587 9.41493 14.0549H15.1238C15.4603 14.0549 15.7423 13.8206 15.7423 13.4841V10.8049H36.2579V13.4841C36.2579 13.8206 36.5398 14.0549 36.8764 14.0549H42.5852C42.6616 14.0587 42.7378 14.0465 42.8092 14.0193C42.8806 13.992 42.9456 13.9503 43 13.8966C43.0544 13.843 43.0971 13.7786 43.1253 13.7076C43.1536 13.6366 43.1668 13.5605 43.1642 13.4841V10.8049H46.3532C46.6685 10.8006 46.9815 10.8594 47.2737 10.9778C47.5659 11.0962 47.8315 11.2718 48.0548 11.4944C48.2782 11.717 48.4547 11.982 48.5741 12.2738C48.6935 12.5656 48.7534 12.8784 48.7501 13.1937V18.0159H12.3159C12.1542 18.0159 11.9993 18.0801 11.885 18.1943C11.7707 18.3086 11.7065 18.4636 11.7065 18.6252C11.7065 18.7869 11.7707 18.9419 11.885 19.0561C11.9993 19.1704 12.1542 19.2346 12.3159 19.2346H48.7501V43.6096H42.2328C41.8963 43.6096 41.6407 43.9245 41.6407 44.2606V52.5471H5.64696C5.33098 52.55 5.01761 52.4897 4.72519 52.37C4.43277 52.2502 4.16718 52.0733 3.94398 51.8496C3.72077 51.6259 3.54443 51.36 3.42529 51.0673C3.30614 50.7746 3.24658 50.4611 3.25009 50.1452ZM48.2276 44.8284L42.8595 51.4795V44.8284H48.2276Z" fill="#0A2463"></path><path d="M5.89062 20.6562C5.72901 20.6562 5.57401 20.7205 5.45973 20.8347C5.34545 20.949 5.28125 21.104 5.28125 21.2656V39.7002C5.28125 39.8618 5.34545 40.0168 5.45973 40.1311C5.57401 40.2454 5.72901 40.3096 5.89062 40.3096C6.05224 40.3096 6.20724 40.2454 6.32152 40.1311C6.4358 40.0168 6.5 39.8618 6.5 39.7002V21.2656C6.5 21.104 6.4358 20.949 6.32152 20.8347C6.20724 20.7205 6.05224 20.6562 5.89062 20.6562Z" fill="#0A2463"></path><path d="M18.086 22.9688C17.6873 22.9688 17.2975 23.087 16.966 23.3085C16.6344 23.53 16.376 23.8449 16.2235 24.2133C16.0709 24.5817 16.031 24.987 16.1087 25.3781C16.1865 25.7691 16.3785 26.1284 16.6605 26.4103C16.9424 26.6923 17.3016 26.8843 17.6927 26.962C18.0838 27.0398 18.4891 26.9999 18.8575 26.8473C19.2259 26.6947 19.5407 26.4363 19.7623 26.1048C19.9838 25.7733 20.102 25.3835 20.102 24.9848C20.1014 24.4503 19.8888 23.9379 19.5109 23.5599C19.1329 23.182 18.6205 22.9694 18.086 22.9688ZM18.086 25.782C17.9283 25.782 17.7742 25.7353 17.6431 25.6477C17.512 25.5601 17.4098 25.4355 17.3494 25.2899C17.2891 25.1442 17.2733 24.9839 17.3041 24.8292C17.3348 24.6746 17.4108 24.5325 17.5223 24.421C17.6338 24.3095 17.7758 24.2336 17.9305 24.2028C18.0851 24.1721 18.2454 24.1878 18.3911 24.2482C18.5368 24.3085 18.6613 24.4107 18.7489 24.5418C18.8365 24.6729 18.8833 24.8271 18.8833 24.9848C18.883 25.1961 18.7989 25.3988 18.6495 25.5482C18.5 25.6977 18.2974 25.7818 18.086 25.782ZM25.9998 22.9688C25.601 22.9688 25.2113 23.087 24.8797 23.3085C24.5482 23.53 24.2898 23.8449 24.1372 24.2133C23.9846 24.5817 23.9447 24.987 24.0225 25.3781C24.1003 25.7691 24.2923 26.1284 24.5742 26.4103C24.8562 26.6923 25.2154 26.8843 25.6065 26.962C25.9975 27.0398 26.4029 26.9999 26.7713 26.8473C27.1396 26.6947 27.4545 26.4363 27.676 26.1048C27.8975 25.7733 28.0158 25.3835 28.0158 24.9848C28.0152 24.4503 27.8026 23.9379 27.4246 23.5599C27.0467 23.182 26.5343 22.9694 25.9998 22.9688ZM25.9998 25.782C25.8421 25.782 25.6879 25.7353 25.5568 25.6477C25.4257 25.5601 25.3235 25.4355 25.2632 25.2899C25.2028 25.1442 25.1871 24.9839 25.2178 24.8292C25.2486 24.6746 25.3245 24.5325 25.436 24.421C25.5475 24.3095 25.6896 24.2336 25.8442 24.2028C25.9989 24.1721 26.1592 24.1878 26.3049 24.2482C26.4505 24.3085 26.5751 24.4107 26.6627 24.5418C26.7503 24.6729 26.797 24.8271 26.797 24.9848C26.7968 25.1961 26.7127 25.3988 26.5632 25.5482C26.4138 25.6977 26.2111 25.7818 25.9998 25.782ZM33.9135 27.0008C34.3122 27.0008 34.702 26.8825 35.0336 26.661C35.3651 26.4395 35.6235 26.1246 35.7761 25.7563C35.9287 25.3879 35.9686 24.9825 35.8908 24.5915C35.813 24.2004 35.621 23.8412 35.3391 23.5592C35.0571 23.2773 34.6979 23.0853 34.3068 23.0075C33.9158 22.9297 33.5104 22.9696 33.142 23.1222C32.7736 23.2748 32.4588 23.5332 32.2373 23.8647C32.0157 24.1963 31.8975 24.586 31.8975 24.9848C31.8981 25.5193 32.1107 26.0317 32.4887 26.4096C32.8666 26.7876 33.379 27.0002 33.9135 27.0008ZM33.9135 24.1875C34.0712 24.1875 34.2253 24.2343 34.3565 24.3219C34.4876 24.4095 34.5898 24.534 34.6501 24.6797C34.7104 24.8253 34.7262 24.9857 34.6955 25.1403C34.6647 25.295 34.5888 25.437 34.4773 25.5485C34.3658 25.66 34.2237 25.736 34.0691 25.7667C33.9144 25.7975 33.7541 25.7817 33.6084 25.7213C33.4627 25.661 33.3382 25.5588 33.2506 25.4277C33.163 25.2966 33.1163 25.1425 33.1163 24.9848C33.1165 24.7734 33.2006 24.5707 33.35 24.4213C33.4995 24.2718 33.7021 24.1877 33.9135 24.1875ZM41.8262 22.9688C41.4276 22.969 41.0379 23.0874 40.7065 23.309C40.3751 23.5306 40.1168 23.8456 39.9644 24.214C39.812 24.5824 39.7722 24.9877 39.8501 25.3787C39.928 25.7697 40.1201 26.1288 40.4021 26.4107C40.6841 26.6925 41.0433 26.8844 41.4343 26.9621C41.8254 27.0398 42.2307 26.9998 42.599 26.8472C42.9673 26.6946 43.2821 26.4362 43.5036 26.1047C43.7251 25.7732 43.8433 25.3835 43.8433 24.9848C43.8427 24.4501 43.6299 23.9375 43.2518 23.5596C42.8736 23.1816 42.3609 22.9691 41.8262 22.9688ZM41.8262 25.782C41.6686 25.7818 41.5146 25.7349 41.3836 25.6472C41.2526 25.5594 41.1506 25.4349 41.0904 25.2892C41.0302 25.1435 41.0146 24.9832 41.0454 24.8286C41.0763 24.674 41.1523 24.5321 41.2639 24.4207C41.3754 24.3093 41.5175 24.2334 41.6721 24.2027C41.8267 24.1721 41.987 24.1879 42.1326 24.2483C42.2782 24.3087 42.4027 24.4108 42.4902 24.5419C42.5778 24.673 42.6245 24.8271 42.6245 24.9848C42.6243 25.1963 42.54 25.3991 42.3904 25.5486C42.2407 25.6981 42.0378 25.782 41.8262 25.782ZM10.1733 29.5632C9.77455 29.5632 9.38478 29.6814 9.05324 29.903C8.72171 30.1245 8.46331 30.4393 8.31073 30.8077C8.15814 31.1761 8.11822 31.5815 8.196 31.9725C8.27379 32.3636 8.4658 32.7228 8.74774 33.0048C9.02969 33.2867 9.38891 33.4787 9.77998 33.5565C10.171 33.6343 10.5764 33.5944 10.9448 33.4418C11.3132 33.2892 11.628 33.0308 11.8495 32.6993C12.0711 32.3677 12.1893 31.978 12.1893 31.5792C12.1885 31.0448 11.9759 30.5324 11.598 30.1545C11.2201 29.7766 10.7077 29.564 10.1733 29.5632ZM10.1733 32.3765C10.0156 32.3765 9.86146 32.3297 9.73035 32.2421C9.59924 32.1545 9.49705 32.03 9.43671 31.8843C9.37636 31.7386 9.36057 31.5783 9.39134 31.4237C9.4221 31.269 9.49803 31.127 9.60953 31.0155C9.72103 30.904 9.86309 30.828 10.0177 30.7973C10.1724 30.7665 10.3327 30.7823 10.4784 30.8426C10.6241 30.903 10.7486 31.0052 10.8362 31.1363C10.9238 31.2674 10.9705 31.4215 10.9705 31.5792C10.9702 31.7906 10.8861 31.9931 10.7366 32.1426C10.5872 32.292 10.3846 32.3761 10.1733 32.3765ZM18.086 29.5632C17.6873 29.5632 17.2975 29.6814 16.966 29.903C16.6344 30.1245 16.376 30.4393 16.2235 30.8077C16.0709 31.1761 16.031 31.5815 16.1087 31.9725C16.1865 32.3636 16.3785 32.7228 16.6605 33.0048C16.9424 33.2867 17.3016 33.4787 17.6927 33.5565C18.0838 33.6343 18.4891 33.5944 18.8575 33.4418C19.2259 33.2892 19.5407 33.0308 19.7623 32.6993C19.9838 32.3677 20.102 31.978 20.102 31.5792C20.1014 31.0447 19.8888 30.5323 19.5109 30.1544C19.1329 29.7764 18.6205 29.5638 18.086 29.5632ZM18.086 32.3765C17.9283 32.3765 17.7742 32.3297 17.6431 32.2421C17.512 32.1545 17.4098 32.03 17.3494 31.8843C17.2891 31.7386 17.2733 31.5783 17.3041 31.4237C17.3348 31.269 17.4108 31.127 17.5223 31.0155C17.6338 30.904 17.7758 30.828 17.9305 30.7973C18.0851 30.7665 18.2454 30.7823 18.3911 30.8426C18.5368 30.903 18.6613 31.0052 18.7489 31.1363C18.8365 31.2674 18.8833 31.4215 18.8833 31.5792C18.883 31.7906 18.799 31.9932 18.6495 32.1427C18.5 32.2922 18.2974 32.3762 18.086 32.3765ZM25.9998 29.5632C25.601 29.5632 25.2113 29.6814 24.8797 29.903C24.5482 30.1245 24.2898 30.4393 24.1372 30.8077C23.9846 31.1761 23.9447 31.5815 24.0225 31.9725C24.1003 32.3636 24.2923 32.7228 24.5742 33.0048C24.8562 33.2867 25.2154 33.4787 25.6065 33.5565C25.9975 33.6343 26.4029 33.5944 26.7713 33.4418C27.1396 33.2892 27.4545 33.0308 27.676 32.6993C27.8975 32.3677 28.0158 31.978 28.0158 31.5792C28.0152 31.0447 27.8026 30.5323 27.4246 30.1544C27.0467 29.7764 26.5343 29.5638 25.9998 29.5632ZM25.9998 32.3765C25.8421 32.3765 25.6879 32.3297 25.5568 32.2421C25.4257 32.1545 25.3235 32.03 25.2632 31.8843C25.2028 31.7386 25.1871 31.5783 25.2178 31.4237C25.2486 31.269 25.3245 31.127 25.436 31.0155C25.5475 30.904 25.6896 30.828 25.8442 30.7973C25.9989 30.7665 26.1592 30.7823 26.3049 30.8426C26.4505 30.903 26.5751 31.0052 26.6627 31.1363C26.7503 31.2674 26.797 31.4215 26.797 31.5792C26.7968 31.7906 26.7127 31.9932 26.5633 32.1427C26.4138 32.2922 26.2111 32.3762 25.9998 32.3765ZM33.9135 29.5632C33.5148 29.5632 33.125 29.6814 32.7935 29.903C32.4619 30.1245 32.2035 30.4393 32.051 30.8077C31.8984 31.1761 31.8585 31.5815 31.9362 31.9725C32.014 32.3636 32.206 32.7228 32.488 33.0048C32.7699 33.2867 33.1291 33.4787 33.5202 33.5565C33.9113 33.6343 34.3166 33.5944 34.685 33.4418C35.0534 33.2892 35.3683 33.0308 35.5898 32.6993C35.8113 32.3677 35.9295 31.978 35.9295 31.5792C35.9289 31.0447 35.7163 30.5323 35.3384 30.1544C34.9604 29.7764 34.448 29.5638 33.9135 29.5632ZM33.9135 32.3765C33.7558 32.3765 33.6017 32.3297 33.4706 32.2421C33.3395 32.1545 33.2373 32.03 33.1769 31.8843C33.1166 31.7386 33.1008 31.5783 33.1316 31.4237C33.1623 31.269 33.2383 31.127 33.3498 31.0155C33.4613 30.904 33.6033 30.828 33.758 30.7973C33.9126 30.7665 34.0729 30.7823 34.2186 30.8426C34.3643 30.903 34.4888 31.0052 34.5764 31.1363C34.664 31.2674 34.7108 31.4215 34.7108 31.5792C34.7105 31.7906 34.6265 31.9932 34.477 32.1427C34.3275 32.2922 34.1249 32.3762 33.9135 32.3765ZM41.8262 29.5632C41.4276 29.5634 41.0379 29.6818 40.7065 29.9035C40.3751 30.1251 40.1168 30.44 39.9644 30.8084C39.812 31.1768 39.7722 31.5821 39.8501 31.9731C39.928 32.3641 40.1201 32.7233 40.4021 33.0051C40.6841 33.287 41.0433 33.4789 41.4343 33.5566C41.8254 33.6343 42.2307 33.5943 42.599 33.4417C42.9673 33.2891 43.2821 33.0307 43.5036 32.6992C43.7251 32.3676 43.8433 31.9779 43.8433 31.5792C43.8427 31.0446 43.6299 30.532 43.2518 30.154C42.8736 29.776 42.3609 29.5636 41.8262 29.5632ZM41.8262 32.3765C41.6686 32.3763 41.5146 32.3294 41.3836 32.2416C41.2526 32.1539 41.1506 32.0293 41.0904 31.8836C41.0302 31.7379 41.0146 31.5776 41.0454 31.4231C41.0763 31.2685 41.1523 31.1265 41.2639 31.0151C41.3754 30.9037 41.5175 30.8279 41.6721 30.7972C41.8267 30.7665 41.987 30.7824 42.1326 30.8427C42.2782 30.9031 42.4027 31.0053 42.4902 31.1364C42.5778 31.2675 42.6245 31.4216 42.6245 31.5792C42.6243 31.7908 42.5401 31.9936 42.3904 32.1431C42.2407 32.2926 42.0378 32.3765 41.8262 32.3765ZM10.1733 36.1577C9.77441 36.1576 9.38446 36.2758 9.05277 36.4973C8.72108 36.7188 8.46254 37.0338 8.30985 37.4023C8.15716 37.7707 8.11718 38.1762 8.19497 38.5675C8.27276 38.9587 8.46483 39.318 8.74688 39.6001C9.02892 39.8821 9.38828 40.0742 9.7795 40.152C10.1707 40.2298 10.5762 40.1898 10.9447 40.0371C11.3132 39.8844 11.6281 39.6259 11.8497 39.2942C12.0712 38.9625 12.1894 38.5725 12.1893 38.1737C12.1885 37.6392 11.9759 37.1269 11.598 36.749C11.2201 36.3711 10.7077 36.1584 10.1733 36.1577ZM10.1733 38.972C10.0155 38.9721 9.86123 38.9254 9.72998 38.8378C9.59873 38.7502 9.4964 38.6257 9.43592 38.4799C9.37545 38.3342 9.35955 38.1738 9.39023 38.019C9.42092 37.8643 9.49681 37.7221 9.60831 37.6104C9.7198 37.4988 9.86191 37.4227 10.0166 37.3918C10.1714 37.361 10.3318 37.3767 10.4776 37.4369C10.6234 37.4972 10.7481 37.5994 10.8358 37.7305C10.9236 37.8617 10.9704 38.0159 10.9705 38.1737C10.9703 38.3851 10.8863 38.5879 10.7368 38.7375C10.5874 38.8871 10.3847 38.9714 10.1733 38.972ZM18.086 36.1577C17.6871 36.1576 17.2972 36.2758 16.9655 36.4973C16.6338 36.7188 16.3753 37.0338 16.2226 37.4023C16.0699 37.7707 16.0299 38.1762 16.1077 38.5675C16.1855 38.9587 16.3776 39.318 16.6596 39.6001C16.9417 39.8821 17.301 40.0742 17.6922 40.152C18.0834 40.2298 18.4889 40.1898 18.8574 40.0371C19.2259 39.8844 19.5409 39.6259 19.7624 39.2942C19.9839 38.9625 20.1021 38.5725 20.102 38.1737C20.1014 37.6392 19.8888 37.1268 19.5109 36.7488C19.1329 36.3709 18.6205 36.1583 18.086 36.1577ZM18.086 38.972C17.9282 38.9721 17.774 38.9254 17.6427 38.8378C17.5115 38.7502 17.4091 38.6257 17.3487 38.4799C17.2882 38.3342 17.2723 38.1738 17.303 38.019C17.3336 37.8643 17.4095 37.7221 17.521 37.6104C17.6325 37.4988 17.7746 37.4227 17.9294 37.3918C18.0841 37.361 18.2445 37.3767 18.3903 37.4369C18.5361 37.4972 18.6608 37.5994 18.7486 37.7305C18.8363 37.8617 18.8832 38.0159 18.8833 38.1737C18.8832 38.3852 18.7992 38.588 18.6497 38.7377C18.5002 38.8873 18.2975 38.9716 18.086 38.972ZM25.9998 36.1577C25.6009 36.1576 25.2109 36.2758 24.8793 36.4973C24.5476 36.7188 24.289 37.0338 24.1363 37.4023C23.9836 37.7707 23.9437 38.1762 24.0215 38.5675C24.0993 38.9587 24.2913 39.318 24.5734 39.6001C24.8554 39.8821 25.2148 40.0742 25.606 40.152C25.9972 40.2298 26.4027 40.1898 26.7712 40.0371C27.1397 39.8844 27.4546 39.6259 27.6761 39.2942C27.8977 38.9625 28.0159 38.5725 28.0158 38.1737C28.0152 37.6392 27.8026 37.1268 27.4246 36.7488C27.0467 36.3709 26.5343 36.1583 25.9998 36.1577ZM25.9998 38.972C25.842 38.9721 25.6877 38.9254 25.5565 38.8378C25.4252 38.7502 25.3229 38.6257 25.2624 38.4799C25.2019 38.3342 25.186 38.1738 25.2167 38.019C25.2474 37.8643 25.3233 37.7221 25.4348 37.6104C25.5463 37.4988 25.6884 37.4227 25.8431 37.3918C25.9979 37.361 26.1583 37.3767 26.3041 37.4369C26.4499 37.4972 26.5746 37.5994 26.6623 37.7305C26.75 37.8617 26.7969 38.0159 26.797 38.1737C26.7969 38.3852 26.7129 38.588 26.5635 38.7377C26.414 38.8873 26.2113 38.9716 25.9998 38.972ZM33.9135 40.1907C34.3123 40.1908 34.7023 40.0726 35.0339 39.8511C35.3656 39.6296 35.6241 39.3148 35.7769 38.9463C35.9296 38.5779 35.9696 38.1725 35.8919 37.7813C35.8142 37.3901 35.6222 37.0307 35.3403 36.7486C35.0583 36.4666 34.6991 36.2744 34.3079 36.1965C33.9168 36.1186 33.5113 36.1584 33.1428 36.311C32.7743 36.4635 32.4593 36.7219 32.2376 37.0534C32.016 37.385 31.8976 37.7748 31.8975 38.1737C31.898 38.7083 32.1105 39.2209 32.4885 39.599C32.8664 39.9772 33.3789 40.19 33.9135 40.1907ZM33.9135 37.3764C34.0713 37.3763 34.2257 37.423 34.3569 37.5106C34.4882 37.5983 34.5905 37.7229 34.651 37.8687C34.7114 38.0144 34.7273 38.1749 34.6965 38.3297C34.6657 38.4845 34.5897 38.6267 34.4781 38.7383C34.3665 38.8499 34.2243 38.9259 34.0695 38.9567C33.9147 38.9874 33.7543 38.9716 33.6085 38.9111C33.4627 38.8507 33.3381 38.7484 33.2505 38.6171C33.1629 38.4858 33.1162 38.3315 33.1163 38.1737C33.1165 37.9623 33.2006 37.7597 33.3501 37.6102C33.4995 37.4608 33.7022 37.3767 33.9135 37.3764ZM41.8262 36.1577C41.4274 36.1578 41.0376 36.2761 40.706 36.4978C40.3745 36.7194 40.1161 37.0344 39.9635 37.403C39.811 37.7715 39.7712 38.1769 39.8491 38.5681C39.927 38.9592 40.1191 39.3185 40.4012 39.6004C40.6833 39.8824 41.0427 40.0743 41.4339 40.1521C41.825 40.2298 42.2305 40.1897 42.5989 40.037C42.9674 39.8843 43.2822 39.6258 43.5037 39.2941C43.7252 38.9624 43.8434 38.5725 43.8433 38.1737C43.8427 37.639 43.6299 37.1264 43.2518 36.7485C42.8736 36.3705 42.3609 36.158 41.8262 36.1577ZM41.8262 38.972C41.6685 38.9719 41.5143 38.925 41.3832 38.8373C41.2521 38.7496 41.1499 38.625 41.0896 38.4792C41.0293 38.3335 41.0135 38.1731 41.0443 38.0184C41.0751 37.8637 41.1511 37.7216 41.2626 37.6101C41.3742 37.4985 41.5163 37.4226 41.671 37.3918C41.8257 37.361 41.9861 37.3767 42.1318 37.437C42.2776 37.4974 42.4022 37.5995 42.4899 37.7306C42.5776 37.8618 42.6244 38.0159 42.6245 38.1737C42.6244 38.3854 42.5403 38.5883 42.3906 38.738C42.2409 38.8877 42.0379 38.9718 41.8262 38.972ZM10.1733 42.7521C9.77441 42.752 9.38446 42.8702 9.05277 43.0917C8.72108 43.3133 8.46254 43.6282 8.30985 43.9967C8.15716 44.3652 8.11718 44.7707 8.19497 45.1619C8.27276 45.5531 8.46483 45.9125 8.74688 46.1945C9.02892 46.4766 9.38828 46.6686 9.7795 46.7464C10.1707 46.8242 10.5762 46.7843 10.9447 46.6316C11.3132 46.4789 11.6281 46.2203 11.8497 45.8886C12.0712 45.5569 12.1894 45.167 12.1893 44.7681C12.1885 44.2337 11.9759 43.7213 11.598 43.3434C11.2201 42.9655 10.7077 42.7529 10.1733 42.7521ZM10.1733 45.5664C10.0155 45.5665 9.86123 45.5198 9.72998 45.4322C9.59873 45.3447 9.4964 45.2201 9.43592 45.0744C9.37545 44.9287 9.35955 44.7683 9.39023 44.6135C9.42092 44.4587 9.49681 44.3165 9.60831 44.2049C9.7198 44.0932 9.86191 44.0172 10.0166 43.9863C10.1714 43.9554 10.3318 43.9711 10.4776 44.0314C10.6234 44.0917 10.7481 44.1939 10.8358 44.325C10.9236 44.4561 10.9704 44.6103 10.9705 44.7681C10.9703 44.9796 10.8863 45.1823 10.7368 45.332C10.5874 45.4816 10.3847 45.5659 10.1733 45.5664ZM18.086 42.7521C17.6871 42.752 17.2972 42.8702 16.9655 43.0917C16.6338 43.3133 16.3753 43.6282 16.2226 43.9967C16.0699 44.3652 16.0299 44.7707 16.1077 45.1619C16.1855 45.5531 16.3776 45.9125 16.6596 46.1945C16.9417 46.4766 17.301 46.6686 17.6922 46.7464C18.0834 46.8242 18.4889 46.7843 18.8574 46.6316C19.2259 46.4789 19.5409 46.2203 19.7624 45.8886C19.9839 45.5569 20.1021 45.167 20.102 44.7681C20.1014 44.2336 19.8888 43.7212 19.5109 43.3433C19.1329 42.9653 18.6205 42.7527 18.086 42.7521ZM18.086 45.5664C17.9282 45.5665 17.774 45.5198 17.6427 45.4322C17.5115 45.3447 17.4091 45.2201 17.3487 45.0744C17.2882 44.9287 17.2723 44.7683 17.303 44.6135C17.3336 44.4587 17.4095 44.3165 17.521 44.2049C17.6325 44.0932 17.7746 44.0172 17.9294 43.9863C18.0841 43.9554 18.2445 43.9711 18.3903 44.0314C18.5361 44.0917 18.6608 44.1939 18.7486 44.325C18.8363 44.4561 18.8832 44.6103 18.8833 44.7681C18.8832 44.9796 18.7992 45.1825 18.6497 45.3321C18.5002 45.4818 18.2975 45.566 18.086 45.5664ZM25.9998 42.7521C25.6009 42.752 25.2109 42.8702 24.8793 43.0917C24.5476 43.3133 24.289 43.6282 24.1363 43.9967C23.9836 44.3652 23.9437 44.7707 24.0215 45.1619C24.0993 45.5531 24.2913 45.9125 24.5734 46.1945C24.8554 46.4766 25.2148 46.6686 25.606 46.7464C25.9972 46.8242 26.4027 46.7843 26.7712 46.6316C27.1397 46.4789 27.4546 46.2203 27.6761 45.8886C27.8977 45.5569 28.0159 45.167 28.0158 44.7681C28.0152 44.2336 27.8026 43.7212 27.4246 43.3433C27.0467 42.9653 26.5343 42.7527 25.9998 42.7521ZM25.9998 45.5664C25.842 45.5665 25.6877 45.5198 25.5565 45.4322C25.4252 45.3447 25.3229 45.2201 25.2624 45.0744C25.2019 44.9287 25.186 44.7683 25.2167 44.6135C25.2474 44.4587 25.3233 44.3165 25.4348 44.2049C25.5463 44.0932 25.6884 44.0172 25.8431 43.9863C25.9979 43.9554 26.1583 43.9711 26.3041 44.0314C26.4499 44.0917 26.5746 44.1939 26.6623 44.325C26.75 44.4561 26.7969 44.6103 26.797 44.7681C26.7969 44.9796 26.7129 45.1825 26.5635 45.3321C26.414 45.4818 26.2113 45.566 25.9998 45.5664Z" fill="#F1412C"></path><path d="M37.6797 35.0781C37.6797 34.9165 37.6155 34.7615 37.5012 34.6472C37.3869 34.533 37.2319 34.4688 37.0703 34.4688H30.6719C30.5103 34.4688 30.3553 34.533 30.241 34.6472C30.1267 34.7615 30.0625 34.9165 30.0625 35.0781V41.4766C30.0625 41.6382 30.1267 41.7932 30.241 41.9075C30.3553 42.0217 30.5103 42.0859 30.6719 42.0859H37.0703C37.2319 42.0859 37.3869 42.0217 37.5012 41.9075C37.6155 41.7932 37.6797 41.6382 37.6797 41.4766V35.0781ZM36.4609 40.8672H31.2812V35.6875H36.4609V40.8672Z" fill="#0A2463"></path></svg> 