<?xml version="1.0" encoding="UTF-8"?> <svg xmlns="http://www.w3.org/2000/svg" width="80" height="56" viewBox="0 0 80 56" fill="none"><path d="M50.7407 43L37.9492 29.5662L24.7344 16.1695C21.0876 12.4725 21.0876 6.46978 24.7344 2.77276C28.3812 -0.924254 34.3024 -0.924253 37.9492 2.77276L51.164 16.1695L54.6563 22.8047L51.164 27.3922L53.618 31.8472L48.0965 35.376L50.7407 43Z" fill="#C1CDE9"></path><path d="M64.0501 29.5534L50.7414 43L47.7678 35.3578L53.2893 31.8323L50.8353 27.3814L54.3275 22.7984L50.8353 16.1693L64.0501 2.78526C67.6969 -0.908273 73.6181 -0.908272 77.2649 2.78526C80.9117 6.47879 80.9117 12.4758 77.2649 16.1693L64.0501 29.5534Z" fill="#C1CDE9"></path><path d="M28.9948 17H12.6094C12.4478 17 12.2928 17.0642 12.1785 17.1785C12.0642 17.2928 12 17.4478 12 17.6094C12 17.771 12.0642 17.926 12.1785 18.0403C12.2928 18.1545 12.4478 18.2188 12.6094 18.2188H28.9948C29.1564 18.2188 29.3114 18.1545 29.4257 18.0403C29.5399 17.926 29.6041 17.771 29.6041 17.6094C29.6041 17.4478 29.5399 17.2928 29.4257 17.1785C29.3114 17.0642 29.1564 17 28.9948 17ZM12.6094 20.3516H21.3482C21.5098 20.3516 21.6648 20.2874 21.7791 20.1731C21.8934 20.0588 21.9576 19.9038 21.9576 19.7422C21.9576 19.5806 21.8934 19.4256 21.7791 19.3113C21.6648 19.197 21.5098 19.1328 21.3482 19.1328H12.6094C12.4478 19.1328 12.2928 19.197 12.1785 19.3113C12.0642 19.4256 12 19.5806 12 19.7422C12 19.9038 12.0642 20.0588 12.1785 20.1731C12.2928 20.2874 12.4478 20.3516 12.6094 20.3516Z" fill="#F1412C"></path><path d="M28.9948 22H12.6094C12.4478 22 12.2928 22.0642 12.1785 22.1785C12.0642 22.2928 12 22.4478 12 22.6094C12 22.771 12.0642 22.926 12.1785 23.0403C12.2928 23.1545 12.4478 23.2188 12.6094 23.2188H28.9948C29.1564 23.2188 29.3114 23.1545 29.4257 23.0403C29.5399 22.926 29.6041 22.771 29.6041 22.6094C29.6041 22.4478 29.5399 22.2928 29.4257 22.1785C29.3114 22.0642 29.1564 22 28.9948 22ZM12.6094 25.3516H21.3482C21.5098 25.3516 21.6648 25.2874 21.7791 25.1731C21.8934 25.0588 21.9576 24.9038 21.9576 24.7422C21.9576 24.5806 21.8934 24.4256 21.7791 24.3113C21.6648 24.197 21.5098 24.1328 21.3482 24.1328H12.6094C12.4478 24.1328 12.2928 24.197 12.1785 24.3113C12.0642 24.4256 12 24.5806 12 24.7422C12 24.9038 12.0642 25.0588 12.1785 25.1731C12.2928 25.2874 12.4478 25.3516 12.6094 25.3516Z" fill="#F1412C"></path><path d="M12.6094 27.2188H21.3482C21.5098 27.2188 21.6648 27.1545 21.7791 27.0403C21.8934 26.926 21.9576 26.771 21.9576 26.6094C21.9576 26.4478 21.8934 26.2928 21.7791 26.1785C21.6648 26.0642 21.5098 26 21.3482 26H12.6094C12.4478 26 12.2928 26.0642 12.1785 26.1785C12.0642 26.2928 12 26.4478 12 26.6094C12 26.771 12.0642 26.926 12.1785 27.0403C12.2928 27.1545 12.4478 27.2188 12.6094 27.2188Z" fill="#F1412C"></path><path d="M12.6094 31.2188H21.3482C21.5098 31.2188 21.6648 31.1545 21.7791 31.0403C21.8934 30.926 21.9576 30.771 21.9576 30.6094C21.9576 30.4478 21.8934 30.2928 21.7791 30.1785C21.6648 30.0642 21.5098 30 21.3482 30H12.6094C12.4478 30 12.2928 30.0642 12.1785 30.1785C12.0642 30.2928 12 30.4478 12 30.6094C12 30.771 12.0642 30.926 12.1785 31.0403C12.2928 31.1545 12.4478 31.2188 12.6094 31.2188Z" fill="#F1412C"></path><path d="M12.7956 33H24.2044C24.4154 33 24.6178 32.9473 24.767 32.8536C24.9162 32.7598 25 32.6326 25 32.5C25 32.3674 24.9162 32.2402 24.767 32.1464C24.6178 32.0527 24.4154 32 24.2044 32H12.7956C12.5846 32 12.3822 32.0527 12.233 32.1464C12.0838 32.2402 12 32.3674 12 32.5C12 32.6326 12.0838 32.7598 12.233 32.8536C12.3822 32.9473 12.5846 33 12.7956 33Z" fill="#F1412C"></path><path d="M12.7956 35H24.2044C24.4154 35 24.6178 34.9473 24.767 34.8536C24.9162 34.7598 25 34.6326 25 34.5C25 34.3674 24.9162 34.2402 24.767 34.1464C24.6178 34.0527 24.4154 34 24.2044 34H12.7956C12.5846 34 12.3822 34.0527 12.233 34.1464C12.0838 34.2402 12 34.3674 12 34.5C12 34.6326 12.0838 34.7598 12.233 34.8536C12.3822 34.9473 12.5846 35 12.7956 35Z" fill="#F1412C"></path><path d="M14.0938 52.5469H28.7188C30.1728 52.5452 31.5668 51.9669 32.595 50.9387C33.6231 49.9106 34.2015 48.5165 34.2031 47.0625V39.6222H32.9844V41.5781H9.82812V14.4H32.9844V24H34.2031V12.9375C34.2015 11.4835 33.6231 10.0894 32.595 9.06127C31.5668 8.03311 30.1728 7.45476 28.7188 7.45312H14.0938C12.6397 7.45476 11.2457 8.03311 10.2175 9.06127C9.18936 10.0894 8.61101 11.4835 8.60938 12.9375V47.0625C8.61101 48.5165 9.18936 49.9106 10.2175 50.9387C11.2457 51.9669 12.6397 52.5452 14.0938 52.5469ZM14.0938 8.67188H28.7188C29.8497 8.67314 30.9339 9.12296 31.7336 9.92264C32.5333 10.7223 32.9831 11.8066 32.9844 12.9375V13.1813H9.82812V12.9375C9.82939 11.8066 10.2792 10.7223 11.0789 9.92264C11.8786 9.12296 12.9628 8.67314 14.0938 8.67188ZM9.82812 42.7969H32.9844V47.0625C32.9831 48.1934 32.5333 49.2777 31.7336 50.0774C30.9339 50.877 29.8497 51.3269 28.7188 51.3281H14.0938C12.9628 51.3269 11.8786 50.877 11.0789 50.0774C10.2792 49.2777 9.82939 48.1934 9.82812 47.0625V42.7969Z" fill="#0A2463"></path><path d="M19.1484 47.6719H23.6578C23.8194 47.6719 23.9744 47.6077 24.0887 47.4934C24.203 47.3791 24.2672 47.2241 24.2672 47.0625C24.2672 46.9009 24.203 46.7459 24.0887 46.6316C23.9744 46.5173 23.8194 46.4531 23.6578 46.4531H19.1484C18.9868 46.4531 18.8318 46.5173 18.7175 46.6316C18.6033 46.7459 18.5391 46.9009 18.5391 47.0625C18.5391 47.2241 18.6033 47.3791 18.7175 47.4934C18.8318 47.6077 18.9868 47.6719 19.1484 47.6719Z" fill="#0A2463"></path><path d="M34 23.5L24.5 28C24.5 30.5 24.6 36 25 38C25.6 41 31.1667 44.5 34 46.5C39.5 43 42.6 39.2 43 38C43.4 36.8 43.1667 30.8333 43 28L34 23.5Z" fill="white"></path><path d="M34.5932 45.2923L28.8146 41.5106C27.9848 40.9677 27.1992 40.0161 26.6591 38.8995C26.2473 38.0482 26.0206 37.1751 26.0206 36.4406V28.549L34.5932 24.5207L35 24.7123L33.5727 24L25 28.2671V36.6249C25 37.4029 25.2268 38.3276 25.6386 39.2293C26.1786 40.4117 26.9643 41.42 27.7941 41.9947L33.5727 46L34.5932 45.2927V45.2923Z" fill="#C1CDE9"></path><path d="M27.3132 42.8979L33.4069 47.0498C33.5081 47.1187 33.6276 47.1556 33.75 47.1556C33.8724 47.1556 33.9919 47.1187 34.0931 47.0498L40.1868 42.898C42.0447 41.6326 43.5 38.8828 43.5 36.6378V28.0943C43.5 27.9803 43.4681 27.8687 43.4078 27.7719C43.3475 27.6752 43.2614 27.5974 43.1591 27.5472L34.0184 23.0622C33.935 23.0213 33.8433 23 33.7503 23C33.6574 23 33.5656 23.0213 33.4822 23.0622L24.3416 27.5345C24.2391 27.5846 24.1528 27.6625 24.0924 27.7593C24.032 27.856 24 27.9678 24 28.0819V36.6381C24 37.5865 24.259 38.645 24.7489 39.6993C25.3765 41.0494 26.3109 42.2154 27.3132 42.8979ZM25.2188 28.4618L33.75 24.2876L42.2813 28.4737V36.6375C42.2813 38.4583 41.008 40.8638 39.5007 41.8904L33.75 45.8085L27.9993 41.8904C27.1735 41.328 26.3917 40.3419 25.8542 39.1852C25.4444 38.3033 25.2188 37.3986 25.2188 36.6375V28.4618Z" fill="#F1412C"></path><path d="M32.4128 37.5134C32.5267 37.6245 32.6794 37.6866 32.8383 37.6866C32.9973 37.6866 33.15 37.6245 33.2638 37.5134L37.3641 33.5144C37.4214 33.4585 37.4671 33.3919 37.4987 33.3184C37.5302 33.2448 37.547 33.1658 37.548 33.0858C37.549 33.0057 37.5342 32.9263 37.5045 32.852C37.4748 32.7777 37.4308 32.7099 37.3749 32.6527C37.319 32.5954 37.2524 32.5496 37.1788 32.5181C37.1053 32.4865 37.0263 32.4698 36.9462 32.4688C36.8662 32.4678 36.7868 32.4826 36.7125 32.5123C36.6382 32.542 36.5704 32.586 36.5131 32.6419L32.8384 36.2259L30.988 34.4213C30.8723 34.3084 30.7165 34.2462 30.5549 34.2482C30.3933 34.2502 30.2391 34.3163 30.1263 34.432C30.0134 34.5477 29.9512 34.7035 29.9532 34.8651C29.9552 35.0268 30.0213 35.1809 30.137 35.2938L32.4128 37.5134Z" fill="#F1412C"></path></svg> 