<?xml version="1.0" encoding="UTF-8"?> <svg xmlns="http://www.w3.org/2000/svg" width="78" height="56" viewBox="0 0 78 56" fill="none"><path d="M48.7407 43L35.9492 29.5662L22.7344 16.1695C19.0876 12.4725 19.0876 6.46978 22.7344 2.77276C26.3812 -0.924254 32.3024 -0.924253 35.9492 2.77276L49.164 16.1695L52.6563 22.8047L49.164 27.3922L51.618 31.8472L46.0965 35.376L48.7407 43Z" fill="#C1CDE9"></path><path d="M62.0501 29.5534L48.7414 43L45.7678 35.3578L51.2893 31.8323L48.8353 27.3814L52.3275 22.7984L48.8353 16.1693L62.0501 2.78526C65.6969 -0.908273 71.6181 -0.908272 75.2649 2.78526C78.9117 6.47879 78.9117 12.4758 75.2649 16.1693L62.0501 29.5534Z" fill="#C1CDE9"></path><path d="M8.2743 8.36719H5.22742C4.35658 8.36631 3.52082 8.71027 2.90285 9.32385C2.28489 9.93744 1.935 10.7707 1.92969 11.6416V51.0021C1.93511 51.8726 2.28513 52.7055 2.90316 53.3186C3.52118 53.9317 4.35689 54.275 5.22742 54.2734H8.2743C7.40377 54.275 6.56806 53.9317 5.95003 53.3186C5.33201 52.7055 4.98199 51.8726 4.97656 51.0021V11.6416C4.98188 10.7707 5.33176 9.93744 5.94973 9.32385C6.56769 8.71027 7.40346 8.36631 8.2743 8.36719Z" fill="#C1CDE9"></path><path d="M33.8856 35.8925H17.5002C17.3386 35.8925 17.1836 35.9567 17.0694 36.071C16.9551 36.1853 16.8909 36.3403 16.8909 36.5019C16.8909 36.6635 16.9551 36.8185 17.0694 36.9328C17.1836 37.0471 17.3386 37.1113 17.5002 37.1113H33.8856C34.0472 37.1113 34.2022 37.0471 34.3165 36.9328C34.4308 36.8185 34.495 36.6635 34.495 36.5019C34.495 36.3403 34.4308 36.1853 34.3165 36.071C34.2022 35.9567 34.0472 35.8925 33.8856 35.8925ZM10.9145 36.4548L9.42542 37.8758L8.80254 37.2541C8.74589 37.1975 8.67867 37.1527 8.60469 37.1221C8.53072 37.0915 8.45145 37.0758 8.37141 37.0759C8.29137 37.076 8.21213 37.0918 8.1382 37.1225C8.06428 37.1532 7.99713 37.1981 7.94058 37.2548C7.88403 37.3114 7.83919 37.3787 7.80862 37.4526C7.77805 37.5266 7.76235 37.6059 7.76241 37.6859C7.76255 37.8476 7.82689 38.0025 7.94129 38.1167L8.98515 39.1587C9.09772 39.271 9.24976 39.3349 9.4088 39.3367C9.56784 39.3385 9.72128 39.278 9.83634 39.1682L11.7559 37.3364C11.8147 37.2814 11.8621 37.2153 11.8953 37.1419C11.9284 37.0684 11.9467 36.9891 11.949 36.9086C11.9513 36.8281 11.9376 36.7479 11.9087 36.6727C11.8798 36.5974 11.8363 36.5287 11.7807 36.4704C11.725 36.4121 11.6584 36.3655 11.5846 36.3331C11.5108 36.3007 11.4313 36.2833 11.3508 36.2819C11.2702 36.2805 11.1902 36.295 11.1153 36.3247C11.0404 36.3544 10.9721 36.3986 10.9144 36.4549L10.9145 36.4548ZM17.5002 43.5097C17.3386 43.5097 17.1836 43.5739 17.0694 43.6882C16.9551 43.8025 16.8909 43.9575 16.8909 44.1191C16.8909 44.2807 16.9551 44.4357 17.0694 44.55C17.1836 44.6643 17.3386 44.7285 17.5002 44.7285H27.9288V43.5097H17.5002ZM10.9145 44.087L9.42542 45.5081L8.80254 44.8864C8.74607 44.8291 8.67881 44.7836 8.60466 44.7524C8.5305 44.7212 8.45091 44.7051 8.37047 44.7048C8.29003 44.7046 8.21034 44.7203 8.13599 44.751C8.06164 44.7817 7.9941 44.8268 7.93728 44.8837C7.88045 44.9406 7.83546 45.0083 7.8049 45.0827C7.77434 45.1571 7.75881 45.2368 7.75921 45.3172C7.75961 45.3977 7.77593 45.4772 7.80724 45.5513C7.83854 45.6254 7.8842 45.6926 7.94159 45.749L8.98545 46.7909C9.09804 46.9032 9.25009 46.9671 9.40913 46.9689C9.56817 46.9706 9.7216 46.9102 9.83665 46.8003L11.7562 44.9687C11.8731 44.8571 11.9409 44.7036 11.9447 44.542C11.9484 44.3805 11.8879 44.224 11.7763 44.1071C11.6647 43.9902 11.5112 43.9224 11.3497 43.9186C11.1881 43.9148 11.0316 43.9754 10.9147 44.087H10.9145ZM17.5002 39.2441H26.2391C26.4007 39.2441 26.5557 39.1799 26.67 39.0656C26.7843 38.9513 26.8485 38.7963 26.8485 38.6347C26.8485 38.4731 26.7843 38.3181 26.67 38.2038C26.5557 38.0895 26.4007 38.0253 26.2391 38.0253H17.5002C17.3386 38.0253 17.1836 38.0895 17.0694 38.2038C16.9551 38.3181 16.8909 38.4731 16.8909 38.6347C16.8909 38.7963 16.9551 38.9513 17.0694 39.0656C17.1836 39.1799 17.3386 39.2441 17.5002 39.2441ZM17.5002 45.7441C17.3386 45.7441 17.1836 45.8083 17.0694 45.9226C16.9551 46.0368 16.8909 46.1918 16.8909 46.3535C16.8909 46.5151 16.9551 46.6701 17.0694 46.7844C17.1836 46.8986 17.3386 46.9628 17.5002 46.9628H26.2022L26.6085 45.7441H17.5002ZM9.34072 32.9472H29.3303C29.8534 32.9547 30.3609 32.769 30.7556 32.4258C31.1504 32.0826 31.4048 31.6059 31.4702 31.0869C31.5356 30.5679 31.4073 30.043 31.11 29.6126C30.8126 29.1822 30.367 28.8766 29.8585 28.7541V26.3898C29.8585 21.7408 26.1757 17.9282 21.5733 17.6601C21.4466 17.1651 21.1587 16.7264 20.7551 16.4131C20.3514 16.0998 19.855 15.9297 19.344 15.9297C18.833 15.9297 18.3366 16.0998 17.933 16.4131C17.5293 16.7264 17.2415 17.1651 17.1147 17.6601C12.5116 17.9282 8.83504 21.7408 8.83504 26.3898V28.724C7.92098 28.9224 7.19531 29.8006 7.19531 30.8144C7.19893 31.3811 7.42653 31.9234 7.82844 32.323C8.23036 32.7225 8.77399 32.9469 9.34072 32.9472ZM28.6397 26.3898V28.6816H22.6475V27.5462C22.6478 27.2395 22.5491 26.9409 22.3662 26.6947C22.1832 26.4485 21.9257 26.2679 21.6319 26.1798V18.8876C25.4913 19.1863 28.6397 22.4355 28.6397 26.3898ZM17.2647 27.5462C17.2647 27.4224 17.3887 27.3613 17.5147 27.3613H21.1567C21.2826 27.3613 21.4288 27.4222 21.4288 27.5462V28.6816H17.2647V27.5462ZM19.3468 17.1478C19.6282 17.1471 19.8985 17.2579 20.0984 17.4561C20.2982 17.6542 20.4114 17.9235 20.4132 18.2049V26.1425H18.2804V18.2049C18.2821 17.9235 18.3953 17.6542 18.5952 17.4561C18.795 17.2579 19.0653 17.1471 19.3468 17.1478ZM9.2488 29.9003H10.2569C10.4185 29.9003 10.5735 29.8361 10.6878 29.7219C10.8021 29.6076 10.8663 29.4526 10.8663 29.291C10.8663 29.1293 10.8021 28.9743 10.6878 28.8601C10.5735 28.7458 10.4185 28.6816 10.2569 28.6816H10.0538V26.3898C10.0538 22.4357 13.2022 19.1863 17.0616 18.8879V26.1801C16.7678 26.2683 16.5103 26.4488 16.3273 26.695C16.1444 26.9412 16.0457 27.2398 16.046 27.5465V28.6816H14.5225C14.3609 28.6816 14.2059 28.7458 14.0916 28.8601C13.9774 28.9743 13.9132 29.1293 13.9132 29.291C13.9132 29.4526 13.9774 29.6076 14.0916 29.7219C14.2059 29.8361 14.3609 29.9003 14.5225 29.9003H29.2389C29.8141 29.9003 30.2479 30.2956 30.2479 30.8144C30.2468 31.057 30.1498 31.2893 29.9779 31.4606C29.8061 31.6319 29.5735 31.7282 29.3309 31.7285H9.34072C9.0981 31.7282 8.86546 31.6319 8.69363 31.4606C8.5218 31.2893 8.42476 31.057 8.42371 30.8144C8.42371 30.2936 8.85931 29.9003 9.2488 29.9003Z" fill="#F1412C"></path><path d="M45.4413 31.8013L38.5938 36.2853V11.6417C38.595 10.6131 38.1878 9.6262 37.4615 8.89788C36.7353 8.16956 35.7495 7.75948 34.721 7.75781H30.4688V5.72656C30.4688 5.56495 30.4045 5.40995 30.2903 5.29567C30.176 5.18139 30.021 5.11719 29.8594 5.11719C29.6978 5.11719 29.5428 5.18139 29.4285 5.29567C29.3142 5.40995 29.25 5.56495 29.25 5.72656V7.75781H23.6641V5.72656C23.6641 5.56495 23.5999 5.40995 23.4856 5.29567C23.3713 5.18139 23.2163 5.11719 23.0547 5.11719C22.8931 5.11719 22.7381 5.18139 22.6238 5.29567C22.5095 5.40995 22.4453 5.56495 22.4453 5.72656V7.75781H16.8594V5.72656C16.8594 5.56495 16.7952 5.40995 16.6809 5.29567C16.5666 5.18139 16.4116 5.11719 16.25 5.11719C16.0884 5.11719 15.9334 5.18139 15.8191 5.29567C15.7048 5.40995 15.6406 5.56495 15.6406 5.72656V7.75781H10.0547V5.72656C10.0547 5.56495 9.99049 5.40995 9.87621 5.29567C9.76193 5.18139 9.60693 5.11719 9.44531 5.11719C9.2837 5.11719 9.1287 5.18139 9.01442 5.29567C8.90014 5.40995 8.83594 5.56495 8.83594 5.72656V7.75781H5.22722C4.19515 7.75819 3.20512 8.16678 2.47318 8.8944C1.74124 9.62202 1.3268 10.6096 1.32031 11.6417V51.0024C1.32691 52.0341 1.74149 53.0213 2.47351 53.7483C3.20553 54.4754 4.1955 54.8832 5.22722 54.8828H34.721C35.2301 54.8824 35.7341 54.7817 36.2043 54.5864C36.6744 54.3912 37.1015 54.1052 37.4612 53.7449C37.8208 53.3845 38.1059 52.9569 38.3003 52.4863C38.4946 52.0157 38.5943 51.5115 38.5938 51.0024V44.3213L49.1349 37.4163C49.5621 37.138 49.9201 36.7658 50.1817 36.3282C50.4433 35.8905 50.6016 35.399 50.6444 34.8909C50.6969 34.2904 50.5842 33.6869 50.3186 33.1457C50.1089 32.7156 49.81 32.335 49.4419 32.0293C49.0738 31.7235 48.6448 31.4996 48.1834 31.3725C47.7221 31.2453 47.239 31.2178 46.7662 31.2917C46.2934 31.3657 45.8418 31.5394 45.4413 31.8013ZM37.375 51.0024C37.3757 51.3515 37.3077 51.6973 37.1746 52.0201C37.0416 52.3429 36.8463 52.6362 36.5998 52.8835C36.3533 53.1307 36.0605 53.3268 35.7381 53.4608C35.4157 53.5947 35.0701 53.6638 34.721 53.6641H5.22722C4.51862 53.6648 3.83843 53.3855 3.3349 52.8869C2.83137 52.3884 2.54531 51.711 2.53906 51.0024V11.6417C2.54517 10.9327 2.83108 10.2549 3.33454 9.75577C3.838 9.25662 4.51826 8.97656 5.22722 8.97656H8.83594V9.68679C8.30795 9.80783 7.8376 10.1066 7.50369 10.5332C7.16978 10.9597 6.99259 11.488 7.00182 12.0296C7.00597 12.6704 7.26342 13.2835 7.71798 13.7351C8.17255 14.1868 8.78731 14.4403 9.4281 14.4403C10.0689 14.4403 10.6836 14.1868 11.1382 13.7351C11.5928 13.2835 11.8502 12.6704 11.8544 12.0296C11.8514 11.4962 11.6738 10.9784 11.3488 10.5553C11.0239 10.1323 10.5693 9.82722 10.0547 9.68679V8.97656H15.6406V9.68679C15.1235 9.8261 14.666 10.1302 14.3373 10.553C14.0086 10.9757 13.8266 11.4942 13.8191 12.0296C13.8191 12.6727 14.0746 13.2894 14.5293 13.7442C14.984 14.1989 15.6007 14.4543 16.2438 14.4543C16.8869 14.4543 17.5036 14.1989 17.9583 13.7442C18.413 13.2894 18.6685 12.6727 18.6685 12.0296C18.6635 11.4953 18.4841 10.9772 18.1575 10.5543C17.8309 10.1314 17.3751 9.82674 16.8594 9.68679V8.97656H22.4453V9.68679C21.8753 9.83569 21.3791 10.1873 21.0498 10.6758C20.7205 11.1643 20.5806 11.7562 20.6564 12.3404C20.7321 12.9247 21.0183 13.4613 21.4613 13.8496C21.9043 14.238 22.4738 14.4515 23.0629 14.4501C23.7047 14.4496 24.32 14.1945 24.7737 13.7406C25.2274 13.2868 25.4824 12.6714 25.4826 12.0296C25.4757 11.4944 25.2944 10.9761 24.9662 10.5533C24.638 10.1305 24.1808 9.82625 23.6641 9.68679V8.97656H29.25V9.68679C28.6813 9.83905 28.1876 10.1931 27.8609 10.6829C27.5343 11.1727 27.3972 11.7646 27.4752 12.3481C27.5531 12.9316 27.8409 13.4668 28.2846 13.8536C28.7284 14.2404 29.2978 14.4525 29.8865 14.4501C30.2038 14.4497 30.5179 14.3867 30.8108 14.2648C31.1037 14.1429 31.3697 13.9645 31.5936 13.7397C31.8175 13.5149 31.9948 13.2481 32.1155 12.9547C32.2362 12.6612 32.2978 12.3469 32.2969 12.0296C32.3074 11.4886 32.1314 10.9604 31.7985 10.5338C31.4656 10.1072 30.9961 9.80812 30.4688 9.68679V8.97656H34.721C35.0703 8.97722 35.416 9.04668 35.7384 9.18098C36.0608 9.31528 36.3536 9.51179 36.6001 9.75928C36.8466 10.0068 37.0419 10.3004 37.1748 10.6234C37.3078 10.9464 37.3758 11.2924 37.375 11.6417V37.0841L34.7153 38.8321C34.5801 38.9214 34.4859 39.0607 34.4534 39.2194C34.421 39.3781 34.4529 39.5433 34.5422 39.6784C34.6314 39.8136 34.7708 39.9078 34.9295 39.9403C35.0882 39.9728 35.2533 39.9408 35.3885 39.8516L45.3765 33.3051L46.2195 34.5848L29.6315 45.4578L28.789 44.1781L31.8227 42.1896C31.8903 42.1461 31.9486 42.0896 31.9942 42.0234C32.0399 41.9571 32.072 41.8826 32.0887 41.8039C32.1054 41.7252 32.1063 41.644 32.0915 41.565C32.0767 41.4859 32.0463 41.4106 32.0022 41.3434C31.9582 41.2761 31.9012 41.2182 31.8346 41.1731C31.7681 41.1279 31.6932 41.0964 31.6144 41.0803C31.5357 41.0643 31.4545 41.0639 31.3755 41.0794C31.2966 41.0948 31.2215 41.1257 31.1546 41.1704L27.6115 43.4928C27.5582 43.5267 27.5106 43.569 27.4707 43.618C27.4464 43.6493 27.425 43.6829 27.4068 43.7181H27.406L24.8924 48.4588C24.8431 48.5516 24.8187 48.6556 24.8216 48.7607C24.8244 48.8658 24.8544 48.9683 24.9085 49.0584C24.9627 49.1484 25.0393 49.223 25.1307 49.2747C25.2222 49.3264 25.3255 49.3536 25.4306 49.3536H25.4421L30.9766 49.2083V49.2075C31.0888 49.2038 31.198 49.1696 31.2924 49.1088L37.375 45.1202V51.0024ZM9.40591 10.8279C9.64343 10.8286 9.87544 10.8996 10.0726 11.0321C10.2698 11.1645 10.4233 11.3524 10.5137 11.5721C10.6042 11.7917 10.6275 12.0332 10.5807 12.2661C10.534 12.499 10.4193 12.7128 10.2511 12.8805C10.0829 13.0483 9.86877 13.1624 9.63576 13.2085C9.40275 13.2546 9.1613 13.2306 8.94192 13.1395C8.72253 13.0485 8.53505 12.8944 8.40316 12.6969C8.27126 12.4994 8.20087 12.2672 8.20087 12.0296C8.2017 11.7106 8.32903 11.4049 8.55494 11.1796C8.78084 10.9544 9.08687 10.8279 9.40591 10.8279ZM16.2358 10.8279C16.4733 10.8285 16.7054 10.8995 16.9026 11.0318C17.0999 11.1642 17.2534 11.3521 17.344 11.5717C17.4345 11.7914 17.4579 12.0329 17.4112 12.2658C17.3645 12.4987 17.2498 12.7126 17.0817 12.8804C16.9135 13.0481 16.6994 13.1623 16.4663 13.2084C16.2333 13.2546 15.9918 13.2306 15.7724 13.1396C15.553 13.0485 15.3655 12.8945 15.2336 12.697C15.1017 12.4994 15.0313 12.2672 15.0312 12.0296C15.0321 11.7107 15.1593 11.4051 15.3851 11.1798C15.6109 10.9545 15.9168 10.828 16.2358 10.8279ZM23.0657 10.8279C23.3032 10.8286 23.5352 10.8997 23.7323 11.0321C23.9295 11.1646 24.083 11.3525 24.1734 11.5722C24.2638 11.7918 24.2871 12.0333 24.2404 12.2662C24.1936 12.4991 24.0789 12.7129 23.9107 12.8806C23.7425 13.0483 23.5284 13.1624 23.2954 13.2085C23.0624 13.2546 22.8209 13.2306 22.6015 13.1395C22.3822 13.0485 22.1947 12.8944 22.0628 12.6969C21.9309 12.4994 21.8605 12.2672 21.8605 12.0296C21.8613 11.7106 21.9887 11.4049 22.2146 11.1796C22.4405 10.9543 22.7466 10.8278 23.0657 10.8279ZM29.8954 10.8279C30.133 10.8286 30.365 10.8996 30.5621 11.0321C30.7593 11.1645 30.9128 11.3524 31.0033 11.5721C31.0937 11.7917 31.117 12.0332 31.0703 12.2661C31.0235 12.499 30.9088 12.7128 30.7406 12.8805C30.5724 13.0483 30.3583 13.1624 30.1253 13.2085C29.8923 13.2546 29.6508 13.2306 29.4314 13.1395C29.2121 13.0485 29.0246 12.8944 28.8927 12.6969C28.7608 12.4994 28.6904 12.2672 28.6904 12.0296C28.6912 11.7106 28.8186 11.4049 29.0445 11.1796C29.2704 10.9544 29.5764 10.8279 29.8954 10.8279ZM28.0008 45.1975L29.8579 48.0186L26.4577 48.1076L28.0008 45.1975ZM30.3016 46.4762L46.8899 35.6029L47.7329 36.8826L31.1446 47.7559L30.3016 46.4762ZM49.437 34.7375C49.4031 35.2954 49.1518 35.8178 48.7372 36.1926L46.4114 32.659C46.6719 32.5417 46.9532 32.4775 47.2388 32.4702C47.5244 32.4628 47.8086 32.5124 48.0748 32.6161C48.341 32.7198 48.5839 32.8754 48.7892 33.074C48.9946 33.2726 49.1584 33.5102 49.2709 33.7727C49.4022 34.0765 49.4592 34.4073 49.4372 34.7375H49.437Z" fill="#0A2463"></path></svg> 