<svg width="500" height="396" viewBox="0 0 500 396" fill="none" xmlns="http://www.w3.org/2000/svg">
<path d="M408.637 287.716L500 198L408.637 108.284L317.273 18.5687C292.06 -6.18958 251.123 -6.18958 225.91 18.5688C200.697 43.3271 200.697 83.5261 225.91 108.284L317.273 198L225.91 287.716C200.697 312.474 200.697 352.673 225.91 377.431C251.123 402.19 292.06 402.19 317.273 377.431L408.637 287.716Z" fill="#1D387C"/>
<g clip-path="url(#clip0_6003_18)">
<path d="M201.637 287.716L293 198L201.637 108.284L110.273 18.5687C85.0601 -6.18958 44.1229 -6.18958 18.9097 18.5688C-6.30325 43.3271 -6.30325 83.5261 18.9097 108.284L110.273 198L18.9098 287.716C-6.30324 312.474 -6.30324 352.673 18.9098 377.431C44.1228 402.19 85.0601 402.19 110.273 377.431L201.637 287.716Z" fill="#1D387C"/>
</g>
<defs>
<clipPath id="clip0_6003_18">
<rect width="293" height="396" fill="white"/>
</clipPath>
</defs>
</svg>
