<svg width="595" height="152" viewBox="0 0 595 152" fill="none" xmlns="http://www.w3.org/2000/svg">
<path d="M274.395 67.5L256.841 19.26H267.896L278.415 48.003L288.934 19.26H298.515L309.101 48.003L319.62 19.26H330.608L313.054 67.5H305.081L293.691 36.479L282.368 67.5H274.395ZM343.929 67.5C342.142 67.5 340.489 67.0533 338.971 66.16C337.452 65.2667 336.246 64.0607 335.353 62.542C334.459 61.0233 334.013 59.3707 334.013 57.584V29.176C334.013 27.3447 334.459 25.692 335.353 24.218C336.246 22.6993 337.452 21.4933 338.971 20.6C340.489 19.7067 342.142 19.26 343.929 19.26H372.337C374.123 19.26 375.754 19.7067 377.228 20.6C378.746 21.4933 379.952 22.6993 380.846 24.218C381.784 25.692 382.253 27.3447 382.253 29.176V57.584C382.253 59.3707 381.784 61.0233 380.846 62.542C379.952 64.0607 378.746 65.2667 377.228 66.16C375.754 67.0533 374.123 67.5 372.337 67.5H343.929ZM344.398 57.048H371.734V29.712H344.398V57.048ZM427.084 67.5L413.081 50.817H426.682L437.804 63.949V67.5H427.084ZM389.631 67.5V19.327H427.888C429.719 19.327 431.372 19.7737 432.846 20.667C434.365 21.5603 435.571 22.7663 436.464 24.285C437.402 25.8037 437.871 27.4563 437.871 29.243V41.705C437.871 43.4917 437.402 45.1443 436.464 46.663C435.571 48.1817 434.365 49.3877 432.846 50.281C431.372 51.1743 429.719 51.621 427.888 51.621L400.016 51.688V67.5H389.631ZM400.016 41.169H427.352V29.712H400.016V41.169ZM444.986 67.5V19.26H455.438V38.154H464.885L480.697 19.26H491.551V22.878L474.332 43.38L491.551 63.882V67.5H480.697L464.885 48.606H455.438V67.5H444.986Z" fill="black"/>
<path d="M257.886 137V88.76H302.441V99.212H268.405V107.654H295.808V118.106H268.405V126.548H302.441V137H257.886ZM309.049 137V88.76H319.769L346.77 120.92V88.76H357.289V137H346.569L319.434 104.706V137H309.049ZM364.929 137V88.76H409.484V99.212H375.448V107.654H402.851V118.106H375.448V126.548H409.484V137H364.929ZM453.545 137L439.542 120.317H453.143L464.265 133.449V137H453.545ZM416.092 137V88.827H454.349C456.18 88.827 457.833 89.2737 459.307 90.167C460.826 91.0603 462.032 92.2663 462.925 93.785C463.863 95.3037 464.332 96.9563 464.332 98.743V111.205C464.332 112.992 463.863 114.644 462.925 116.163C462.032 117.682 460.826 118.888 459.307 119.781C457.833 120.674 456.18 121.121 454.349 121.121L426.477 121.188V137H416.092ZM426.477 110.669H453.813V99.212H426.477V110.669ZM481.296 137C479.509 137 477.857 136.553 476.338 135.66C474.819 134.767 473.613 133.561 472.72 132.042C471.827 130.523 471.38 128.871 471.38 127.084V98.676C471.38 96.8447 471.827 95.192 472.72 93.718C473.613 92.1993 474.819 90.9933 476.338 90.1C477.857 89.2067 479.509 88.76 481.296 88.76H509.637C511.468 88.76 513.121 89.2067 514.595 90.1C516.114 90.9933 517.32 92.1993 518.213 93.718C519.151 95.192 519.62 96.8447 519.62 98.676V103.232H509.101V99.212H481.765V126.548H509.101V119.312H498.649V108.86H519.62V127.084C519.62 128.871 519.151 130.523 518.213 132.042C517.32 133.561 516.114 134.767 514.595 135.66C513.121 136.553 511.468 137 509.637 137H481.296ZM543.839 137V118.977L521.528 88.76H533.923L549.065 107.788L564.14 88.76H576.669L554.291 119.044V137H543.839Z" fill="black"/>
<path d="M12.5733 70.7168L74.665 8.62512C76.0259 7.26418 77.872 6.5 79.796 6.5C83.7385 6.5 86.9594 9.64705 87.0513 13.5887L88.2489 65.0917C88.3548 69.6498 92.0814 73.2901 96.6411 73.2901C98.85 73.2901 100.97 72.4192 102.542 70.8662L165.221 8.90668C166.782 7.36434 168.886 6.5 171.08 6.5C175.639 6.5 179.353 10.1658 179.411 14.7255L179.973 58.5349C180.033 63.2703 183.89 67.0773 188.625 67.0773H227.762C232.312 67.0773 236 70.7653 236 75.3143C236 77.4993 235.132 79.5949 233.587 81.1397L171.168 143.559C169.417 145.31 167.042 146.294 164.566 146.294C159.41 146.294 155.23 142.114 155.23 136.958V85.8661C155.23 81.9228 152.034 78.7265 148.091 78.7265C146.198 78.7265 144.381 79.4792 143.043 80.818L80.7835 143.077C78.724 145.137 75.9307 146.294 73.0176 146.294C66.9517 146.294 62.0341 141.376 62.0341 135.31V93.4826C62.0341 89.1937 58.557 85.7167 54.2682 85.7167H18.787C13.9342 85.7167 10 81.7825 10 76.9297C10 74.5994 10.9259 72.3642 12.5733 70.7168Z" fill="black"/>
</svg>
