<svg width="595" height="165" viewBox="0 0 595 165" fill="none" xmlns="http://www.w3.org/2000/svg">
<path d="M274.395 80.5L256.841 32.26H267.896L278.415 61.003L288.934 32.26H298.515L309.101 61.003L319.62 32.26H330.608L313.054 80.5H305.081L293.691 49.479L282.368 80.5H274.395ZM343.929 80.5C342.142 80.5 340.489 80.0533 338.971 79.16C337.452 78.2667 336.246 77.0607 335.353 75.542C334.459 74.0233 334.013 72.3707 334.013 70.584V42.176C334.013 40.3447 334.459 38.692 335.353 37.218C336.246 35.6993 337.452 34.4933 338.971 33.6C340.489 32.7067 342.142 32.26 343.929 32.26H372.337C374.123 32.26 375.754 32.7067 377.228 33.6C378.746 34.4933 379.952 35.6993 380.846 37.218C381.784 38.692 382.253 40.3447 382.253 42.176V70.584C382.253 72.3707 381.784 74.0233 380.846 75.542C379.952 77.0607 378.746 78.2667 377.228 79.16C375.754 80.0533 374.123 80.5 372.337 80.5H343.929ZM344.398 70.048H371.734V42.712H344.398V70.048ZM427.084 80.5L413.081 63.817H426.682L437.804 76.949V80.5H427.084ZM389.631 80.5V32.327H427.888C429.719 32.327 431.372 32.7737 432.846 33.667C434.365 34.5603 435.571 35.7663 436.464 37.285C437.402 38.8037 437.871 40.4563 437.871 42.243V54.705C437.871 56.4917 437.402 58.1443 436.464 59.663C435.571 61.1817 434.365 62.3877 432.846 63.281C431.372 64.1743 429.719 64.621 427.888 64.621L400.016 64.688V80.5H389.631ZM400.016 54.169H427.352V42.712H400.016V54.169ZM444.986 80.5V32.26H455.438V51.154H464.885L480.697 32.26H491.551V35.878L474.332 56.38L491.551 76.882V80.5H480.697L464.885 61.606H455.438V80.5H444.986Z" fill="#F1412C"/>
<path d="M257.886 150V101.76H302.441V112.212H268.405V120.654H295.808V131.106H268.405V139.548H302.441V150H257.886ZM309.049 150V101.76H319.769L346.77 133.92V101.76H357.289V150H346.569L319.434 117.706V150H309.049ZM364.929 150V101.76H409.484V112.212H375.448V120.654H402.851V131.106H375.448V139.548H409.484V150H364.929ZM453.545 150L439.542 133.317H453.143L464.265 146.449V150H453.545ZM416.092 150V101.827H454.349C456.18 101.827 457.833 102.274 459.307 103.167C460.826 104.06 462.032 105.266 462.925 106.785C463.863 108.304 464.332 109.956 464.332 111.743V124.205C464.332 125.992 463.863 127.644 462.925 129.163C462.032 130.682 460.826 131.888 459.307 132.781C457.833 133.674 456.18 134.121 454.349 134.121L426.477 134.188V150H416.092ZM426.477 123.669H453.813V112.212H426.477V123.669ZM481.296 150C479.509 150 477.857 149.553 476.338 148.66C474.819 147.767 473.613 146.561 472.72 145.042C471.827 143.523 471.38 141.871 471.38 140.084V111.676C471.38 109.845 471.827 108.192 472.72 106.718C473.613 105.199 474.819 103.993 476.338 103.1C477.857 102.207 479.509 101.76 481.296 101.76H509.637C511.468 101.76 513.121 102.207 514.595 103.1C516.114 103.993 517.32 105.199 518.213 106.718C519.151 108.192 519.62 109.845 519.62 111.676V116.232H509.101V112.212H481.765V139.548H509.101V132.312H498.649V121.86H519.62V140.084C519.62 141.871 519.151 143.523 518.213 145.042C517.32 146.561 516.114 147.767 514.595 148.66C513.121 149.553 511.468 150 509.637 150H481.296ZM543.839 150V131.977L521.528 101.76H533.923L549.065 120.788L564.14 101.76H576.669L554.291 132.044V150H543.839Z" fill="#F1412C"/>
<path d="M12.5733 83.7168L74.665 21.6251C76.0259 20.2642 77.872 19.5 79.796 19.5C83.7385 19.5 86.9594 22.6471 87.0513 26.5887L88.2489 78.0917C88.3548 82.6498 92.0814 86.2901 96.6411 86.2901C98.85 86.2901 100.97 85.4192 102.542 83.8662L165.221 21.9067C166.782 20.3643 168.886 19.5 171.08 19.5C175.639 19.5 179.353 23.1658 179.411 27.7255L179.973 71.5349C180.033 76.2703 183.89 80.0773 188.625 80.0773H227.762C232.312 80.0773 236 83.7653 236 88.3143C236 90.4993 235.132 92.5949 233.587 94.1397L171.168 156.559C169.417 158.31 167.042 159.294 164.566 159.294C159.41 159.294 155.23 155.114 155.23 149.958V98.8661C155.23 94.9228 152.034 91.7265 148.091 91.7265C146.198 91.7265 144.381 92.4792 143.043 93.818L80.7835 156.077C78.724 158.137 75.9307 159.294 73.0176 159.294C66.9517 159.294 62.0341 154.376 62.0341 148.31V106.483C62.0341 102.194 58.557 98.7167 54.2682 98.7167H18.787C13.9342 98.7167 10 94.7825 10 89.9297C10 87.5994 10.9259 85.3642 12.5733 83.7168Z" fill="#F1412C"/>
</svg>
