<svg width="226" height="141" viewBox="0 0 226 141" fill="none" xmlns="http://www.w3.org/2000/svg">
<path d="M2.5733 64.7168L64.665 2.62512C66.0259 1.26418 67.872 0.5 69.796 0.5C73.7385 0.5 76.9594 3.64705 77.0513 7.58868L78.2489 59.0917C78.3548 63.6498 82.0814 67.2901 86.6411 67.2901C88.85 67.2901 90.9702 66.4192 92.542 64.8662L155.221 2.90668C156.782 1.36434 158.886 0.5 161.08 0.5C165.639 0.5 169.353 4.16582 169.411 8.72554L169.973 52.5349C170.033 57.2703 173.89 61.0773 178.625 61.0773H217.762C222.312 61.0773 226 64.7653 226 69.3143C226 71.4993 225.132 73.5949 223.587 75.1397L161.168 137.559C159.417 139.31 157.042 140.294 154.566 140.294C149.41 140.294 145.23 136.114 145.23 130.958V79.8661C145.23 75.9228 142.034 72.7265 138.091 72.7265C136.198 72.7265 134.381 73.4792 133.043 74.818L70.7835 137.077C68.724 139.137 65.9307 140.294 63.0176 140.294C56.9517 140.294 52.0341 135.376 52.0341 129.31V87.4826C52.0341 83.1937 48.557 79.7167 44.2682 79.7167H8.78699C3.93424 79.7167 0 75.7825 0 70.9297C0 68.5994 0.925892 66.3642 2.5733 64.7168Z" fill="black"/>
</svg>
