<svg width="24" height="24" viewBox="0 0 24 24" fill="none" xmlns="http://www.w3.org/2000/svg">
<path fill-rule="evenodd" clip-rule="evenodd" d="M20.9995 16.92V19.92C21.0017 20.4832 20.7665 21.0212 20.3515 21.4019C19.9366 21.7826 19.3803 21.9707 18.8195 21.92C15.7423 21.5856 12.7865 20.5342 10.1895 18.85C7.77328 17.3147 5.72479 15.2662 4.18945 12.85C2.49943 10.2412 1.44769 7.271 1.11945 4.18001C1.06893 3.62088 1.25572 3.06626 1.63422 2.65163C2.01271 2.237 2.54805 2.00054 3.10945 2.00001H6.10945C7.11332 1.99013 7.96895 2.72597 8.10945 3.72001C8.23607 4.68007 8.4709 5.62273 8.80945 6.53001C9.08419 7.26088 8.90847 8.08481 8.35945 8.64001L7.08945 9.91001C8.51301 12.4136 10.5859 14.4865 13.0895 15.91L14.3595 14.64C14.9146 14.091 15.7386 13.9153 16.4695 14.19C17.3767 14.5286 18.3194 14.7634 19.2795 14.89C20.285 15.0319 21.0246 15.9048 20.9995 16.92Z" stroke="#0056A2" stroke-width="2" stroke-linecap="round" stroke-linejoin="round"/>
</svg>
